<?xml version="1.0" encoding="UTF-8" standalone="no"?>
<svg
   width="16"
   height="16"
   viewBox="0 0 16 16"
   fill="none"
   version="1.1"
   id="svg4"
   sodipodi:docname="ball.svg"
   inkscape:version="1.1.1 (3bf5ae0d25, 2021-09-20)"
   xmlns:inkscape="http://www.inkscape.org/namespaces/inkscape"
   xmlns:sodipodi="http://sodipodi.sourceforge.net/DTD/sodipodi-0.dtd"
   xmlns="http://www.w3.org/2000/svg"
   xmlns:svg="http://www.w3.org/2000/svg">
  <defs
     id="defs8" />
  <sodipodi:namedview
     id="namedview6"
     pagecolor="#ffffff"
     bordercolor="#666666"
     borderopacity="1.0"
     inkscape:pageshadow="2"
     inkscape:pageopacity="0.0"
     inkscape:pagecheckerboard="0"
     showgrid="false"
     showborder="false"
     fit-margin-top="0"
     fit-margin-left="0"
     fit-margin-right="0"
     fit-margin-bottom="0"
     inkscape:zoom="13"
     inkscape:cx="5.2307692"
     inkscape:cy="20.269231"
     inkscape:window-width="1920"
     inkscape:window-height="1017"
     inkscape:window-x="-8"
     inkscape:window-y="32"
     inkscape:window-maximized="1"
     inkscape:current-layer="svg4" />
  <path
     opacity="0.5"
     fill-rule="evenodd"
     clip-rule="evenodd"
     d="M 5.67559,0.355906 C 6.42044,0.124969 7.21144,0 8.03125,0 10.3174,0 12.376,0.973156 13.8305,2.52038 13.3343,3.93756 12.508,5.44041 11.1511,6.42287 10.6065,3.65766 8.62344,1.26122 5.67559,0.355906 Z M 1.80737,2.92225 C 2.45012,2.13891 3.23931,1.48094 4.13228,0.988187 7.21984,1.35775 9.82475,3.75756 10.2933,6.93313 9.72162,7.20684 9.06884,7.38806 8.33488,7.462 7.30816,4.88841 4.575,3.43053 1.80737,2.92225 Z M 14.5286,3.37119 C 13.3289,6.38069 11.1751,8.15853 8.33912,8.409 7.82288,9.42431 7.56887,10.3906 7.56437,11.287 11.4196,11.5126 14.6156,8.98844 15.6452,5.61709 15.3937,4.80422 15.0106,4.05034 14.5286,3.37119 Z M 7.62997,12.2282 C 11.3414,12.3944 14.4485,10.2935 15.9674,7.32422 15.9846,7.53744 16,7.75119 16,7.96875 16,11.8898 13.1508,15.2132 9.41566,15.8714 8.45806,14.8793 7.82538,13.6054 7.62997,12.2282 Z M 6.625,11.3125 C 6.625,10.2363 6.91066,9.11406 7.52175,7.92984 7.26031,7.21847 6.84581,6.60731 6.33116,6.08203 3.39225,8.38541 2.94053,12.6836 5.32088,15.5267 6.15963,15.8275 7.09025,16 8.03125,16 8.07805,16 8.12402,15.9968 8.16999,15.9936 8.20435,15.9912 8.23871,15.9888 8.27341,15.9878 7.22837,14.6769 6.625,13.0356 6.625,11.3125 Z M 1.2045,3.77666 C 2.78466,4.003 4.41322,4.54919 5.62228,5.45887 2.86187,7.72469 2.04734,11.591 3.62909,14.7058 1.44769,13.2825 0,10.7621 0,7.96875 0,6.42975 0.445875,4.99625 1.2045,3.77666 Z"
     fill="#ffffff"
     id="path2" />
</svg>
