<?xml version="1.0" encoding="UTF-8" standalone="no"?>
<svg
   width="12.000006"
   height="17"
   viewBox="0 0 12.000006 17"
   fill="none"
   version="1.1"
   id="svg4"
   sodipodi:docname="chest.svg"
   inkscape:version="1.1.1 (3bf5ae0d25, 2021-09-20)"
   xmlns:inkscape="http://www.inkscape.org/namespaces/inkscape"
   xmlns:sodipodi="http://sodipodi.sourceforge.net/DTD/sodipodi-0.dtd"
   xmlns="http://www.w3.org/2000/svg"
   xmlns:svg="http://www.w3.org/2000/svg">
  <defs
     id="defs8" />
  <sodipodi:namedview
     id="namedview6"
     pagecolor="#ffffff"
     bordercolor="#666666"
     borderopacity="1.0"
     inkscape:pageshadow="2"
     inkscape:pageopacity="0.0"
     inkscape:pagecheckerboard="0"
     showgrid="false"
     showborder="false"
     fit-margin-top="0"
     fit-margin-left="0"
     fit-margin-right="0"
     fit-margin-bottom="0"
     inkscape:zoom="24.470588"
     inkscape:cx="8.6634615"
     inkscape:cy="11.871394"
     inkscape:window-width="1920"
     inkscape:window-height="1017"
     inkscape:window-x="-8"
     inkscape:window-y="32"
     inkscape:window-maximized="1"
     inkscape:current-layer="svg4" />
  <path
     opacity="0.5"
     fill-rule="evenodd"
     clip-rule="evenodd"
     d="m 0.03995212,0.395964 c -6.295e-4,0.280443 -0.001243,0.553798 0.0012972,0.827086 0.0013803,0.14826 -0.0095791,0.3014 -0.0205459,0.45464 -0.02583394,0.36099 -0.051709,0.72254 0.0835796,1.02226 0.127947,0.2836 0.404807,0.5088 0.683492,0.73548 C 0.92870402,3.55006 1.0701,3.66507 1.19294,3.7882 1.36272,3.95825 1.54502,4.01631 1.79339,4.01551 2.34701,4.01391 2.90067,4.01124 3.45434,4.00857 5.45603,3.99892 7.45783,3.98926 9.45834,4.03021 10.2765,4.04697 10.8474,3.83768 11.4004,3.29169 11.8185,2.87864 12.0415,2.49791 11.9936,1.92998 11.9563,1.48753 11.9649,1.04184 11.9736,0.592311 11.9775,0.395624 11.9813,0.198203 11.9813,0 H 8.7227 V 0.966619 H 7.63535 V 0.00498772 H 4.36953 V 0.964092 H 3.27885 V 0.00984243 H 0.04052562 c 0,0.13059657 -2.884e-4,0.25908657 -5.735e-4,0.38612157 z M 2.22377,5.98054 H 9.78741 V 5.0342 H 2.22377 Z M 1.15661,13.9656 H 10.8782 V 13.008 H 1.15661 Z M 11.9587,17 H 0.06223652 V 15.0114 H 11.9587 Z M 2.2973,11.9773 H 9.72488 L 8.82337,7.01439 H 3.19801 Z"
     fill="#ffffff"
     id="path2" />
</svg>
