<?xml version="1.0" encoding="UTF-8" standalone="no"?>
<svg
   width="16.000015"
   height="18"
   viewBox="0 0 16.000015 18"
   fill="none"
   version="1.1"
   id="svg4"
   sodipodi:docname="cube.svg"
   inkscape:version="1.1.1 (3bf5ae0d25, 2021-09-20)"
   xmlns:inkscape="http://www.inkscape.org/namespaces/inkscape"
   xmlns:sodipodi="http://sodipodi.sourceforge.net/DTD/sodipodi-0.dtd"
   xmlns="http://www.w3.org/2000/svg"
   xmlns:svg="http://www.w3.org/2000/svg">
  <defs
     id="defs8" />
  <sodipodi:namedview
     id="namedview6"
     pagecolor="#ffffff"
     bordercolor="#666666"
     borderopacity="1.0"
     inkscape:pageshadow="2"
     inkscape:pageopacity="0.0"
     inkscape:pagecheckerboard="0"
     showgrid="false"
     showborder="false"
     fit-margin-top="0"
     fit-margin-left="0"
     fit-margin-right="0"
     fit-margin-bottom="0"
     inkscape:zoom="23.111111"
     inkscape:cx="-3.1153846"
     inkscape:cy="7.6802885"
     inkscape:window-width="1920"
     inkscape:window-height="1017"
     inkscape:window-x="-8"
     inkscape:window-y="32"
     inkscape:window-maximized="1"
     inkscape:current-layer="svg4" />
  <path
     opacity="0.5"
     fill-rule="evenodd"
     clip-rule="evenodd"
     d="M 5.47806,1.38347 C 5.27109,1.50305 5.06317,1.62318 4.85372,1.74383 4.87113,1.76313 4.88447,1.77956 4.89569,1.7934 4.91502,1.81722 4.9281,1.83333 4.94492,1.84306 l 0.48296,0.27945 5e-5,3e-5 1e-5,1e-5 C 6.2347,2.58959 7.04143,3.05662 7.85571,3.51031 7.94534,3.5602 8.12518,3.5216 8.22878,3.46344 9.02652,3.01611 9.81845,2.55844 10.6103,2.10082 l 10e-5,-8e-5 0.3147,-0.18181 c 0.0495,-0.02864 0.0948,-0.06458 0.1422,-0.1022 v -1e-5 l 10e-5,-1.1e-4 C 11.0899,1.79874 11.1129,1.78049 11.1371,1.76246 11.1192,1.74754 11.1057,1.73569 11.0948,1.72611 v -2e-5 C 11.0768,1.71021 11.0658,1.70054 11.0533,1.69337 l -0.189,-0.109 C 10.2645,1.23858 9.66464,0.89277 9.064,0.548466 8.95988,0.488784 8.85548,0.415323 8.75098,0.34179 8.50725,0.170281 8.26296,-0.00161864 8.0203,1.1503291e-5 7.76077,0.00178307 7.50073,0.176782 7.24291,0.350293 7.14123,0.418719 7.0399,0.486913 6.93908,0.544161 6.45246,0.820474 5.96795,1.10041 5.47806,1.38347 Z M 1.20161,3.84085 C 0.984807,3.96571 0.765749,4.09186 0.543744,4.21951 0.758241,4.34288 0.970633,4.4653 1.18143,4.5868 L 1.18352,4.588 1.184,4.58828 C 2.01133,5.06513 2.81419,5.52787 3.62366,5.97893 3.70394,6.02368 3.87257,5.96813 3.97298,5.91153 4.80329,5.44333 5.62885,4.96672 6.45435,4.49015 l 3e-5,-2e-5 4e-5,-2e-5 3e-5,-2e-5 1.8e-4,-1e-4 0.24725,-0.14273 C 6.74434,4.32272 6.78272,4.29122 6.8271,4.25478 l 3e-5,-2e-5 C 6.84989,4.23607 6.87422,4.21609 6.9015,4.19509 6.69342,4.07563 6.48663,3.95673 6.2808,3.83838 l -0.00151,-8.7e-4 -7.7e-4,-4.4e-4 -1e-5,-1e-5 C 5.47671,3.37603 4.68953,2.92341 3.89781,2.47873 3.81648,2.43307 3.66401,2.4342 3.58239,2.48014 2.79647,2.92239 2.01501,3.37242 1.20177,3.84076 l -1.3e-4,7e-5 -1e-5,1e-5 z m 9.99829,2.82566 c -0.2213,0.12708 -0.44,0.25278 -0.6565,0.3773 l -10e-5,4e-5 -10e-5,8e-5 C 9.73318,7.50972 8.95205,7.95889 8.1666,8.40059 8.08349,8.44732 7.9306,8.45536 7.8504,8.41033 7.0499,7.96093 6.25411,7.50326 5.43585,7.03266 L 5.43542,7.03242 C 5.22552,6.9117 5.01415,6.79014 4.80083,6.66764 l 0.4291,-0.24815 2.9e-4,-1.6e-4 7.6e-4,-4.4e-4 C 5.54172,6.23913 5.8411,6.06595 6.14082,5.89334 6.2614,5.82389 6.38186,5.75422 6.50231,5.68456 l 7e-5,-4e-5 6e-5,-4e-5 7e-5,-3e-5 6e-5,-4e-5 7e-5,-4e-5 7e-5,-4e-5 6e-5,-3e-5 C 6.9226,5.4415 7.3424,5.19871 7.76729,4.96504 7.86756,4.90992 8.03534,4.86002 8.11697,4.90547 8.92392,5.35542 9.7245,5.8167 10.5498,6.2922 c 0.2148,0.12379 0.4313,0.24854 0.6501,0.37431 z m -2.668,5.73579 1.9e-4,0.6956 C 8.75656,12.9691 8.9783,12.8421 9.19777,12.7165 l 8e-5,-10e-5 c 0.82095,-0.47 1.61025,-0.9218 2.39215,-1.386 0.0885,-0.0525 0.1396,-0.2331 0.1409,-0.3549 0.0096,-0.8924 0.0078,-1.78499 0.0059,-2.67751 L 11.736,7.90818 C 11.7359,7.85098 11.7287,7.79376 11.7198,7.72401 v -2e-5 -5e-5 -8e-5 C 11.7151,7.687 11.7099,7.64665 11.7052,7.60096 L 11.1369,7.9266 C 10.3003,8.40584 9.48466,8.87312 8.67242,9.34633 8.60541,9.38529 8.53854,9.49115 8.53797,9.56639 8.53114,10.497 8.53151,11.4277 8.5319,12.4023 Z M 6.69782,12.648 c 0.24253,0.1436 0.48689,0.2884 0.73576,0.4308 0.00585,-0.0326 0.0119,-0.0605 0.01729,-0.0854 v 0 c 0.0099,-0.0456 0.01755,-0.0809 0.0176,-0.1161 L 7.46973,12.3259 C 7.47202,11.4278 7.47431,10.5298 7.45989,9.63199 7.45804,9.51631 7.33799,9.35991 7.22906,9.29541 6.46456,8.84216 5.69267,8.40124 4.92083,7.96036 l -2.1e-4,-1.2e-4 h -1e-5 L 4.53399,7.73932 C 4.485,7.71129 4.43171,7.69067 4.36817,7.66609 v 0 C 4.33523,7.65335 4.29954,7.63954 4.26027,7.62308 c 0,0.28859 0.0046,0.57317 0.00916,0.85473 0.01045,0.6463 0.02065,1.27665 -0.02569,1.90289 -0.04921,0.6656 0.16835,1.0395 0.76892,1.3308 0.57402,0.2785 1.1247,0.6046 1.68512,0.9365 z m 1.86294,5.3003 C 8.55683,17.9165 8.55227,17.8866 8.54792,17.8582 8.53913,17.8007 8.53119,17.7488 8.53104,17.6969 c -9e-4,-0.3326 -8.5e-4,-0.6652 -8e-4,-0.9978 v -3e-4 c 9e-5,-0.6889 1.9e-4,-1.3778 -0.00813,-2.0666 -0.00277,-0.2303 0.07446,-0.3557 0.27713,-0.4687 0.61278,-0.3416 1.22026,-0.6926 1.82776,-1.0437 v 0 h 10e-5 v 0 -10e-5 h 10e-5 v 0 h 10e-5 v 0 -10e-5 h 10e-5 l 10e-5,-10e-5 h 10e-5 v 0 l 1e-4,-10e-5 h 10e-5 l 10e-5,-10e-5 h 10e-5 v -1e-4 c 0.2688,-0.1553 0.5377,-0.3106 0.807,-0.4652 0.0511,-0.0293 0.105,-0.054 0.1744,-0.0858 v 0 h 10e-5 c 0.0373,-0.0172 0.0792,-0.0364 0.1276,-0.0595 v 1.3278 c 0,0.1744 6e-4,0.3487 0.0012,0.5231 v 0 0 0 10e-5 0 0 0 0 0 c 0.0017,0.5068 0.0035,1.0135 -0.0094,1.5199 -0.0032,0.1259 -0.0789,0.3051 -0.1786,0.3648 -0.7708,0.462 -1.5498,0.9104 -2.32891,1.3587 -0.16989,0.0978 -0.33978,0.1956 -0.50959,0.2935 -0.02455,0.0141 -0.05263,0.0222 -0.08768,0.0323 h -2e-5 -2e-5 c -0.0189,0.0055 -0.03983,0.0115 -0.06332,0.0194 z M 6.83505,17.6365 7.46519,18 7.46545,17.282 v -10e-5 C 7.46598,16.3112 7.46649,15.3875 7.45782,14.4638 7.45704,14.3836 7.36861,14.2742 7.2911,14.229 6.32762,13.6671 5.35879,13.1142 4.39002,12.5612 L 4.38052,12.5558 C 4.36441,12.5467 4.34188,12.5486 4.31249,12.5511 h -3e-5 c -0.01613,0.0014 -0.03434,0.003 -0.05469,0.003 l -2.5e-4,0.689 c -4.8e-4,0.9117 -9.7e-4,1.8206 0.00628,2.7295 6.4e-4,0.0858 0.06517,0.2083 0.13736,0.2508 0.79601,0.4686 1.59626,0.9301 2.43389,1.4131 z M 0.6084,5.48204 0.00424071,5.13505 c 0,0.25285 -2.2697e-4,0.50261 -4.517e-4,0.74989 C 0.00291867,6.84264 0.00208199,7.76328 0.0145941,8.68367 0.0158705,8.77436 0.148124,8.89039 0.246907,8.94833 0.971156,9.373 1.69975,9.79034 2.42831,10.2077 l 0.38751,0.222 c 0.07041,0.0403 0.14267,0.0773 0.2291,0.1216 l 9e-5,10e-5 h 2e-5 1e-5 c 0.04551,0.0233 0.09494,0.0486 0.1501,0.0775 L 3.19532,9.95589 C 3.19573,8.98075 3.19612,8.03734 3.18861,7.09399 3.18805,7.0227 3.10926,6.92538 3.04033,6.88522 2.24433,6.42138 1.44527,5.96257 0.60871,5.48222 l -1.21e-4,-7e-5 -1.4e-5,-10e-6 z m 12.1931,5.16506 -2e-4,-0.70336 c -4e-4,-0.97221 -7e-4,-1.90015 0.006,-2.82804 5e-4,-0.07453 0.0659,-0.17948 0.1319,-0.21802 0.8011,-0.46825 1.6055,-0.93076 2.4449,-1.41334 l 10e-5,-7e-5 0.6103,-0.35101 v 0.85271 c 0,0.20302 2e-4,0.40604 4e-4,0.60907 6e-4,0.65385 0.0012,1.30769 -0.0049,1.96149 -10e-4,0.10438 -0.0311,0.26219 -0.1021,0.30411 -0.8031,0.47499 -1.6123,0.93972 -2.4587,1.42576 l -3e-4,2e-4 h -10e-5 l -2e-4,10e-5 c -0.2066,0.1187 -0.4155,0.2387 -0.6271,0.3604 z M 15.4542,4.21941 14.8499,4.56694 C 14.0163,5.04644 13.2106,5.50992 12.4017,5.96774 12.3335,6.00635 12.208,6.01475 12.1429,5.97798 11.3207,5.5131 10.5021,5.04181 9.65758,4.55562 L 9.65704,4.55532 9.06445,4.21426 C 9.33149,4.06068 9.59609,3.91197 9.8578,3.76487 c 0.6201,-0.34855 1.2241,-0.68801 1.8061,-1.06139 0.4386,-0.28153 0.7636,-0.26692 1.1955,0.00904 0.5774,0.36894 1.1758,0.70545 1.7952,1.05381 v 0 C 14.9173,3.9141 15.1839,4.064 15.4542,4.21941 Z M 0.00112761,10.0343 0.481047,10.3106 l 0.001609,9e-4 c 0.368776,0.2124 0.711154,0.4095 1.053754,0.6063 0.13303,0.0764 0.26647,0.1521 0.3999,0.2278 l 1.7e-4,10e-5 c 0.34763,0.1972 0.69521,0.3945 1.03543,0.6037 0.10041,0.0617 0.21196,0.2047 0.21338,0.3117 0.01238,0.9171 0.01001,1.8345 0.00763,2.7518 v 0 L 3.1916,15.3706 c -4e-5,0.0203 -0.00706,0.0406 -0.01737,0.0704 v 10e-5 C 3.16824,15.4584 3.16114,15.4789 3.15366,15.5045 3.07188,15.4587 2.99121,15.4138 2.91138,15.3694 l -2.8e-4,-2e-4 h -4e-5 C 2.74232,15.2753 2.57734,15.1834 2.41354,15.0896 l -0.3921,-0.2242 h -7e-5 C 1.42668,14.5256 0.832022,14.1859 0.243368,13.8361 0.139551,13.7744 0.0129702,13.6387 0.011481,13.5356 -0.00146387,12.6457 -4.8025801e-4,11.7556 5.5276899e-4,10.8207 8.3830099e-4,10.5623 0.00112761,10.3005 0.00112761,10.0343 Z M 15.9945,10.723 c 0,-0.2223 10e-5,-0.4505 10e-5,-0.6873 -0.2288,0.1315 -0.454,0.2607 -0.6765,0.3883 -0.8147,0.4672 -1.5913,0.9127 -2.3609,1.3699 -0.0894,0.0531 -0.1462,0.2285 -0.1483,0.3484 -0.0099,0.573 -0.0087,1.1462 -0.0075,1.7195 3e-4,0.1897 7e-4,0.3793 7e-4,0.569 v 1.0714 c 0.035,-0.0128 0.0634,-0.0222 0.0871,-0.0301 0.0405,-0.0134 0.0677,-0.0224 0.092,-0.0363 0.1756,-0.1006 0.3514,-0.201 0.5272,-0.3014 0.7642,-0.4366 1.5284,-0.8733 2.2849,-1.3228 0.1026,-0.061 0.188,-0.2327 0.1944,-0.3575 0.0162,-0.3183 0.0129,-0.6375 0.0096,-0.9569 -0.0013,-0.1269 -0.0026,-0.2538 -0.0027,-0.3807 -2e-4,-0.4553 -2e-4,-0.9106 -10e-5,-1.3935 z"
     fill="#ffffff"
     id="path2" />
</svg>
