<?xml version="1.0" encoding="UTF-8" standalone="no"?>
<svg
   width="135.7262"
   height="29.509291"
   viewBox="0 0 135.7262 29.509291"
   fill="none"
   version="1.1"
   id="svg47"
   sodipodi:docname="logo.svg"
   inkscape:version="1.1.1 (3bf5ae0d25, 2021-09-20)"
   xmlns:inkscape="http://www.inkscape.org/namespaces/inkscape"
   xmlns:sodipodi="http://sodipodi.sourceforge.net/DTD/sodipodi-0.dtd"
   xmlns="http://www.w3.org/2000/svg"
   xmlns:svg="http://www.w3.org/2000/svg">
  <sodipodi:namedview
     id="namedview49"
     pagecolor="#ffffff"
     bordercolor="#666666"
     borderopacity="1.0"
     inkscape:pageshadow="2"
     inkscape:pageopacity="0.0"
     inkscape:pagecheckerboard="0"
     showgrid="false"
     inkscape:zoom="3.8804348"
     inkscape:cx="10.308123"
     inkscape:cy="13.271709"
     inkscape:window-width="1920"
     inkscape:window-height="1017"
     inkscape:window-x="-8"
     inkscape:window-y="32"
     inkscape:window-maximized="1"
     inkscape:current-layer="svg47"
     showborder="false"
     fit-margin-top="0"
     fit-margin-left="0"
     fit-margin-right="0"
     fit-margin-bottom="0" />
  <path
     d="m 126.0772,23.27619 -2.617,1.8854 c 0.354,0.7394 0.85,1.4197 1.486,2.0408 0.636,0.6211 1.382,1.1164 2.24,1.4861 0.873,0.355 1.812,0.5324 2.817,0.5324 0.725,0 1.427,-0.1109 2.107,-0.3327 0.696,-0.207 1.309,-0.5176 1.842,-0.9317 0.547,-0.414 0.976,-0.9242 1.286,-1.5305 0.325,-0.6211 0.488,-1.3235 0.488,-2.1073 0,-0.6506 -0.103,-1.2274 -0.31,-1.7302 -0.207,-0.5027 -0.496,-0.9464 -0.866,-1.3309 -0.354,-0.3844 -0.768,-0.7098 -1.242,-0.976 -0.473,-0.2809 -0.983,-0.5249 -1.53,-0.732 -0.725,-0.2514 -1.346,-0.488 -1.864,-0.7098 -0.502,-0.2218 -0.894,-0.4658 -1.175,-0.732 -0.266,-0.2662 -0.399,-0.5767 -0.399,-0.9316 0,-0.3401 0.14,-0.6211 0.421,-0.8429 0.281,-0.2366 0.688,-0.3549 1.22,-0.3549 0.399,0 0.769,0.0813 1.109,0.244 0.355,0.1478 0.673,0.3623 0.954,0.6432 0.296,0.2662 0.554,0.5842 0.776,0.9539 l 2.862,-1.5971 c -0.266,-0.5324 -0.651,-1.0574 -1.154,-1.5749 -0.502,-0.5176 -1.138,-0.9465 -1.907,-1.2866 -0.755,-0.3401 -1.649,-0.5102 -2.684,-0.5102 -1.006,0 -1.923,0.1775 -2.751,0.5324 -0.813,0.3401 -1.464,0.8429 -1.952,1.5084 -0.473,0.6654 -0.71,1.4566 -0.71,2.3734 0,0.769 0.141,1.427 0.422,1.9742 0.281,0.5324 0.636,0.9908 1.064,1.3753 0.429,0.3697 0.88,0.6728 1.354,0.9094 0.488,0.2366 0.916,0.4215 1.286,0.5546 0.754,0.2809 1.361,0.5323 1.819,0.7541 0.458,0.2219 0.791,0.4585 0.998,0.7099 0.207,0.2366 0.311,0.5545 0.311,0.9538 0,0.4732 -0.178,0.8503 -0.533,1.1313 -0.355,0.2661 -0.806,0.3992 -1.353,0.3992 -0.517,0 -1.013,-0.1109 -1.486,-0.3327 -0.458,-0.2218 -0.887,-0.5398 -1.286,-0.9538 -0.385,-0.4141 -0.732,-0.9021 -1.043,-1.464 z"
     id="path922" />
  <path
     d="m 117.4722,13.20559 v 8.7397 l -10.714,-9.516 v 16.3036 h 3.593 v -8.7396 l 10.736,9.516 v -16.3037 z"
     id="path920" />
  <path
     id="path918"
     d="m 92.395388,13.206443 v 15.527344 h 3.75 v -5.390625 h 1.148437 l 3.332035,5.390625 h 4.39062 l -4.04492,-5.859375 c 0.14029,-0.05383 0.27749,-0.112661 0.4082,-0.175781 0.887,-0.4289 1.55958,-1.019238 2.01758,-1.773438 0.459,-0.769 0.68945,-1.649825 0.68945,-2.640625 0,-1.0056 -0.23045,-1.884472 -0.68945,-2.638672 -0.458,-0.7689 -1.13058,-1.367975 -2.01758,-1.796875 -0.888,-0.4288 -1.99752,-0.642578 -3.328122,-0.642578 h -1.90625 z m 3.75,3.171875 h 1.640624 c 0.5028,0 0.93191,0.08154 1.287108,0.244141 0.369,0.1627 0.65075,0.398384 0.84375,0.708984 0.192,0.2957 0.28711,0.658991 0.28711,1.087891 0,0.4288 -0.0951,0.796822 -0.28711,1.107422 -0.193,0.2957 -0.47475,0.5248 -0.84375,0.6875 -0.355198,0.1479 -0.784308,0.222656 -1.287108,0.222656 h -1.640624 z" />
  <path
     id="path912"
     d="m 79.030153,13.206443 v 15.527344 h 2.484375 1.109375 6.720703 v -3.083985 h -6.720703 v -3.572265 h 6.277344 v -3.015625 h -6.277344 v -2.773438 h 6.720703 v -3.082031 h -6.720703 z" />
  <path
     d="m 65.0441,16.55509 h 4.2589 v 12.1778 h 3.7488 v -12.1778 h 4.2811 v -3.3495 H 65.0441 Z"
     id="path904" />
  <path
     d="m 59.6995,13.20559 v 8.7397 l -10.7138,-9.516 v 16.3036 h 3.5935 v -8.7396 l 10.736,9.516 v -16.3037 z"
     id="path902" />
  <path
     d="m 41.8806,13.20559 v 15.5273 h 3.8153 v -15.5273 z"
     id="path900" />
  <path
     id="path898"
     d="m 28.514528,13.206443 v 15.527344 h 2.484375 1.109375 6.720703 v -3.083985 h -6.720703 v -3.572265 h 6.277344 v -3.015625 h -6.277344 v -2.773438 h 6.720703 v -3.082031 h -6.720703 z" />
  <path
     id="path890"
     d="m 15.149294,13.206443 v 15.527344 h 2.484375 1.109375 6.720703 v -3.083985 h -6.720703 v -3.572265 h 6.277344 v -3.015625 h -6.277344 v -2.773438 h 6.720703 v -3.082031 h -6.720703 z" />
  <path
     id="path2"
     d="M 0.418825,13.206443 V 28.733787 H 6.49695 c 1.2274,0 2.293212,-0.149613 3.195312,-0.445313 0.902,-0.3106 1.595985,-0.782068 2.083985,-1.417968 0.5028,-0.6358 0.753906,-1.472713 0.753906,-2.507813 0,-0.7838 -0.17635,-1.448894 -0.53125,-1.996094 -0.3402,-0.5619 -0.7983,-1.0201 -1.375,-1.375 -0.384188,-0.246288 -0.798905,-0.447141 -1.242187,-0.601562 0.629519,-0.294304 1.139904,-0.67593 1.529296,-1.150391 0.488,-0.5767 0.732422,-1.272637 0.732422,-2.085937 0,-0.8873 -0.244422,-1.618613 -0.732422,-2.195313 -0.4733,-0.5915 -1.123071,-1.027694 -1.951171,-1.308594 -0.8133804,-0.2958 -1.7603241,-0.443359 -2.8398441,-0.443359 z m 3.75,2.904297 h 1.5527344 c 0.65067,0 1.1529025,0.134191 1.5078125,0.400391 0.35491,0.2662 0.5332031,0.664965 0.5332031,1.197265 0,0.355 -0.081481,0.658756 -0.2441406,0.910156 -0.16267,0.2366 -0.4003975,0.421688 -0.7109375,0.554688 -0.29576,0.1331 -0.6570875,0.199219 -1.0859375,0.199219 H 4.168825 Z m 0,5.878906 h 1.90625 c 0.3697,0 0.70424,0.03743 1,0.111328 0.31055,0.0592 0.5837025,0.162647 0.8203125,0.310547 0.2366,0.1479 0.4215975,0.339572 0.5546875,0.576172 0.13309,0.2366 0.1992188,0.51845 0.1992188,0.84375 0,0.5028 -0.1188588,0.901566 -0.3554688,1.197266 -0.22182,0.281 -0.5237231,0.487993 -0.9082031,0.621093 -0.38449,0.1183 -0.8225469,0.177735 -1.3105469,0.177735 h -1.90625 z" />
  <path
     d="m 109.4742,7.64199 h 5.731 v -1.1806 h -3.263 l 2.136,-2.093 c 0.308,-0.2862 0.555,-0.6118 0.741,-0.97672 0.193,-0.36493 0.29,-0.74417 0.29,-1.13772 0,-0.25044 -0.054,-0.50803 -0.161,-0.77278 -0.101,-0.26475 -0.258,-0.50804 -0.473,-0.72985 -0.207,-0.22182 -0.472,-0.40071 -0.794,-0.53666 C 113.3592,0.07155 112.9802,0 112.5432,0 c -0.572,0 -1.059,0.12164 -1.459,0.36492 -0.394,0.23613 -0.694,0.56528 -0.902,0.98745 -0.2,0.41502 -0.301,0.89085 -0.301,1.42751 h 1.256 c 0,-0.32915 0.054,-0.61895 0.161,-0.86939 0.115,-0.25044 0.276,-0.44005 0.483,-0.56885 0.208,-0.13596 0.455,-0.20393 0.741,-0.20393 0.207,0 0.39,0.03578 0.547,0.10733 0.158,0.0644 0.29,0.15384 0.397,0.26833 0.115,0.11448 0.197,0.24328 0.247,0.38639 0.057,0.13595 0.086,0.27548 0.086,0.41859 0,0.20036 -0.032,0.38997 -0.097,0.56886 -0.064,0.17889 -0.161,0.35777 -0.289,0.53666 -0.129,0.17888 -0.283,0.36492 -0.462,0.55812 z m 7.937,-3.7566 c 0,-0.4007 0.039,-0.76921 0.118,-1.10551 0.079,-0.33631 0.19,-0.6261 0.333,-0.86939 0.15,-0.24328 0.329,-0.42932 0.536,-0.55812 0.208,-0.13595 0.437,-0.20393 0.687,-0.20393 0.265,0 0.498,0.06798 0.698,0.20393 0.207,0.1288 0.383,0.31484 0.526,0.55812 0.15,0.24329 0.265,0.53308 0.343,0.86939 0.079,0.3363 0.118,0.70481 0.118,1.10551 0,0.4007 -0.039,0.7692 -0.118,1.1055 -0.078,0.3363 -0.193,0.6261 -0.343,0.8694 -0.143,0.2433 -0.319,0.4329 -0.526,0.5689 -0.2,0.1288 -0.433,0.1932 -0.698,0.1932 -0.25,0 -0.479,-0.0644 -0.687,-0.1932 -0.207,-0.136 -0.386,-0.3256 -0.536,-0.5689 -0.143,-0.2433 -0.254,-0.5331 -0.333,-0.8694 -0.079,-0.3363 -0.118,-0.7048 -0.118,-1.1055 z m -1.245,0 c 0,0.7799 0.122,1.4597 0.365,2.0393 0.25,0.5796 0.594,1.0304 1.03,1.3524 0.444,0.322 0.952,0.483 1.524,0.483 0.587,0 1.099,-0.161 1.535,-0.483 0.444,-0.322 0.787,-0.7728 1.031,-1.3524 0.243,-0.5796 0.364,-1.2594 0.364,-2.0393 0,-0.77994 -0.121,-1.45971 -0.364,-2.03929 -0.244,-0.57959 -0.587,-1.03039 -1.031,-1.35238 -0.436,-0.32199 -0.948,-0.48299 -1.535,-0.48299 -0.572,0 -1.08,0.161 -1.524,0.48299 -0.436,0.32199 -0.78,0.77279 -1.03,1.35238 -0.243,0.57958 -0.365,1.25935 -0.365,2.03929 z m 6.493,3.7566 h 5.732 v -1.1806 h -3.263 l 2.136,-2.093 c 0.308,-0.2862 0.555,-0.6118 0.741,-0.97672 0.193,-0.36493 0.289,-0.74417 0.289,-1.13772 0,-0.25044 -0.053,-0.50803 -0.161,-0.77278 -0.1,-0.26475 -0.257,-0.50804 -0.472,-0.72985 -0.207,-0.22182 -0.472,-0.40071 -0.794,-0.53666 C 126.5452,0.07155 126.1662,0 125.7292,0 c -0.572,0 -1.059,0.12164 -1.46,0.36492 -0.393,0.23613 -0.694,0.56528 -0.901,0.98745 -0.201,0.41502 -0.301,0.89085 -0.301,1.42751 h 1.256 c 0,-0.32915 0.054,-0.61895 0.161,-0.86939 0.115,-0.25044 0.276,-0.44005 0.483,-0.56885 0.208,-0.13596 0.454,-0.20393 0.741,-0.20393 0.207,0 0.39,0.03578 0.547,0.10733 0.157,0.0644 0.29,0.15384 0.397,0.26833 0.115,0.11448 0.197,0.24328 0.247,0.38639 0.057,0.13595 0.086,0.27548 0.086,0.41859 0,0.20036 -0.032,0.38997 -0.097,0.56886 -0.064,0.17889 -0.161,0.35777 -0.289,0.53666 -0.129,0.17888 -0.283,0.36492 -0.462,0.55812 z m 6.478,0 h 5.732 v -1.1806 h -3.263 l 2.136,-2.093 c 0.307,-0.2862 0.554,-0.6118 0.74,-0.97672 0.193,-0.36493 0.29,-0.74417 0.29,-1.13772 0,-0.25044 -0.054,-0.50803 -0.161,-0.77278 -0.1,-0.26475 -0.258,-0.50804 -0.472,-0.72985 -0.208,-0.22182 -0.473,-0.40071 -0.795,-0.53666 C 133.0222,0.07155 132.6432,0 132.2072,0 c -0.573,0 -1.059,0.12164 -1.46,0.36492 -0.394,0.23613 -0.694,0.56528 -0.902,0.98745 -0.2,0.41502 -0.3,0.89085 -0.3,1.42751 h 1.256 c 0,-0.32915 0.053,-0.61895 0.161,-0.86939 0.114,-0.25044 0.275,-0.44005 0.483,-0.56885 0.207,-0.13596 0.454,-0.20393 0.74,-0.20393 0.208,0 0.39,0.03578 0.548,0.10733 0.157,0.0644 0.289,0.15384 0.397,0.26833 0.114,0.11448 0.197,0.24328 0.247,0.38639 0.057,0.13595 0.086,0.27548 0.086,0.41859 0,0.20036 -0.033,0.38997 -0.097,0.56886 -0.064,0.17889 -0.161,0.35777 -0.29,0.53666 -0.129,0.17888 -0.283,0.36492 -0.461,0.55812 z"
     fill="#ffffff"
     id="path6" />
  <path
     d="m 33.2088,2.23663 c 0.752,0.06532 1.4187,-0.48413 1.4846,-1.22954 0.0039,-0.02305 0.0039,-0.04611 0.0039,-0.073 h -0.7908 c -0.0814,0.31506 -0.2752,0.4726 -0.6977,0.4726 -0.4226,0 -0.6435,-0.15754 -0.7094,-0.4726 h -0.7908 c 0.031,0.75309 0.6784,1.34096 1.4381,1.30638 0.0194,0 0.0388,-0.00384 0.0621,-0.00384 z"
     fill="#ffffff"
     id="path8" />
  <path
     d="M 16.9474,5.87529 V 2.64391 H 15.9512 V 7.35459 H 16.99 l 2.008,-3.2852 v 3.2852 h 0.9962 V 2.64391 h -1.0388 z"
     fill="#ffffff"
     id="path10" />
  <path
     fill-rule="evenodd"
     clip-rule="evenodd"
     d="m 11.0012,3.69289 c 0.3566,-0.64938 1.0621,-1.04513 1.8102,-1.01055 0.0543,0 0.1047,0 0.1512,0.00384 1.1745,0.07684 2.0661,1.07971 1.9886,2.24391 0,1.3563 -0.8451,2.5129 -2.4034,2.5129 -1.597,0 -2.4576,-1.1719 -2.4576,-3.0009 0,-2.09019 0.5039,-3.41963 2.2948,-3.65786 l 2.0777,-0.27664 0.0814,1.05279 -1.9924,0.26512 c -1.2792,0.16522 -1.5002,0.7992 -1.5505,1.86739 z m 0.1162,1.1335 c 0,0.949 0.5311,1.5791 1.4343,1.5791 0.9032,0 1.38,-0.5801 1.38,-1.4754 0,-0.8953 -0.6009,-1.2488 -1.38,-1.2488 -0.7365,0 -1.2443,0.2882 -1.4343,0.6571 z"
     fill="#ffffff"
     id="path12" />
  <path
     d="M 39.4343,2.64391 V 4.40749 H 37.4922 V 2.64391 H 36.496 v 4.71068 h 0.9962 v -1.975 h 1.9421 v 1.975 h 0.9962 V 2.64391 Z"
     fill="#ffffff"
     id="path14" />
  <path
     d="M 32.197,5.87529 V 2.64391 h -0.9962 v 4.71068 h 1.0389 l 2.0079,-3.2852 v 3.2852 h 0.9962 V 2.64391 H 34.205 Z"
     fill="#ffffff"
     id="path16" />
  <path
     d="m 21.789,5.52569 c -0.1086,0.5264 -0.2597,0.7492 -0.5621,0.7492 -0.124,0.0039 -0.2481,-0.0077 -0.3683,-0.0384 v 1.0912 c 0.1551,0.0692 0.3218,0.0999 0.4923,0.0922 0.4807,0.0115 0.911,-0.2882 1.066,-0.7377 0.1241,-0.3689 0.2016,-0.7569 0.2326,-1.145 0.0659,-0.6302 0.0969,-1.2603 0.0969,-1.8943 h 1.3257 v 3.7117 h 0.9963 V 2.64391 H 21.913 c 0.0194,0.96442 -0.0232,1.92498 -0.124,2.88178 z"
     fill="#ffffff"
     id="path18" />
  <path
     fill-rule="evenodd"
     clip-rule="evenodd"
     d="m 29.786,4.21159 -0.0155,1.8674 c 0,0.2881 0.124,0.4072 0.4419,0.4111 h 0.0814 v 0.9068 h -0.2752 c -0.6745,0 -1.0621,-0.2498 -1.1125,-0.8184 -0.2404,0.534 -0.7831,0.8722 -1.3723,0.8568 -0.9264,0 -1.3916,-0.5149 -1.3916,-1.3179 0,-0.7762 0.628,-1.145 1.4614,-1.4755 l 1.2211,-0.4764 c -0.0504,-0.4842 -0.3799,-0.63016 -0.8683,-0.63016 -0.4768,0 -0.8335,0.14596 -0.8877,0.58016 h -0.9575 v -0.0153 c 0.0737,-0.93756 0.8993,-1.63302 1.8452,-1.56002 1.0931,0 1.8451,0.48797 1.8296,1.67142 z m -2.6941,1.7098 c 0,0.4073 0.3411,0.5264 0.8063,0.5264 0.3411,0.0192 0.6745,-0.1037 0.9148,-0.342 l 0.0117,-1.2756 -0.9536,0.3804 c -0.4923,0.1998 -0.7792,0.3573 -0.7792,0.7108 z"
     fill="#ffffff"
     id="path20" />
  <path
     d="M 3.87249,8.16149 C 5.98123,8.19219 7.71396,6.47469 7.74497,4.32689 7.71008,2.17515 5.97735,0.45764 3.87249,0.48838 1.76375,0.45764 0.03101,2.17515 0,4.32689 c 0.03101,2.1478 1.76375,3.8653 3.87249,3.8346 z"
     fill="#ffc800"
     id="path22" />
  <path
     d="m 5.53545,7.18549 c -1.31409,0.7531 -2.74059,0.8876 -3.65154,0.4381 1.20943,0.7146 2.70183,0.7223 3.919,0.0269 1.20555,-0.6763 1.94981,-1.975 1.93431,-3.3813 -0.05427,1.0067 -0.88769,2.1632 -2.20177,2.9163 z"
     fill="#000000"
     id="path24" />
  <path
     d="M 4.36091,0.77271 C 4.62838,1.22994 3.98491,2.09446 2.92278,2.70155 1.86066,3.30863 0.78691,3.43159 0.51944,2.97435 0.50781,2.9513 0.49618,2.92824 0.48843,2.90519 0.43804,2.6247 0.51557,2.34037 0.70163,2.1252 0.73264,2.07909 0.76753,2.03683 0.80242,1.99072 1.11252,1.59112 1.50016,1.25684 1.93819,1.00709 2.37622,0.74965 2.86076,0.58828 3.36081,0.52296 3.41896,0.51527 3.47323,0.50759 3.5275,0.50374 3.80659,0.45379 4.09345,0.5268 4.3144,0.71123 4.3299,0.73044 4.34929,0.74965 4.36091,0.77271 Z"
     fill="#000000"
     id="path26" />
  <path
     d="M 6.00837,1.26452 C 6.47354,2.06372 5.53546,3.46233 3.91126,4.39219 2.28707,5.32199 0.5931,5.42579 0.13181,4.62659 0.05428,4.49209 0.01164,4.34219 0.00389,4.18469 c -0.01938,0.5494 0.07753,1.095 0.29073,1.6022 0.03101,0.0769 0.06589,0.1537 0.10466,0.2306 l 0.00387,0.0115 c 0.14731,0.2421 0.35663,0.438 0.60472,0.5648 0.91094,0.4842 2.44986,0.3189 3.89186,-0.5072 C 6.33786,5.26439 7.25268,4.02329 7.28757,3.00125 7.30308,2.72076 7.23718,2.44411 7.09763,2.20205 7.04336,2.1252 6.98909,2.04835 6.93095,1.97535 6.5937,1.54501 6.17118,1.19152 5.69051,0.94177 5.82231,1.02246 5.93085,1.13388 6.00837,1.26452 Z"
     fill="#000000"
     id="path28" />
  <path
     d="M 3.87249,8.16149 C 5.98123,8.19219 7.71396,6.47469 7.74497,4.32689 7.71008,2.17515 5.97735,0.45764 3.87249,0.48838 1.76375,0.45764 0.03101,2.17515 0,4.32689 c 0.03101,2.1478 1.76375,3.8653 3.87249,3.8346 z"
     fill="url(#paint0_radial_0_278)"
     id="path30"
     style="fill:url(#paint0_radial_0_278)" />
  <defs
     id="defs45">
    <radialGradient
       id="paint0_radial_0_278"
       cx="0"
       cy="0"
       r="1"
       gradientUnits="userSpaceOnUse"
       gradientTransform="matrix(3.87006,0,0,3.83456,3.87169,4.32629)">
      <stop
         offset="0.5"
         stop-color="white"
         stop-opacity="0.01"
         id="stop34" />
      <stop
         offset="1"
         stop-color="white"
         stop-opacity="0.35"
         id="stop36" />
    </radialGradient>
    <clipPath
       id="clip0_0_278">
      <rect
         width="138"
         height="37"
         fill="#ffffff"
         id="rect39"
         x="0"
         y="0" />
    </clipPath>
    <clipPath
       id="clip1_0_278">
      <rect
         width="139.131"
         height="26.9091"
         fill="#ffffff"
         transform="translate(0,10.0909)"
         id="rect42"
         x="0"
         y="0" />
    </clipPath>
  </defs>
</svg>
