<?xml version="1.0" encoding="UTF-8" standalone="no"?>
<svg
   width="14.000013"
   height="18"
   viewBox="0 0 14.000013 18"
   fill="none"
   version="1.1"
   id="svg4"
   sodipodi:docname="puzzle.svg"
   inkscape:version="1.1.1 (3bf5ae0d25, 2021-09-20)"
   xmlns:inkscape="http://www.inkscape.org/namespaces/inkscape"
   xmlns:sodipodi="http://sodipodi.sourceforge.net/DTD/sodipodi-0.dtd"
   xmlns="http://www.w3.org/2000/svg"
   xmlns:svg="http://www.w3.org/2000/svg">
  <defs
     id="defs8" />
  <sodipodi:namedview
     id="namedview6"
     pagecolor="#ffffff"
     bordercolor="#666666"
     borderopacity="1.0"
     inkscape:pageshadow="2"
     inkscape:pageopacity="0.0"
     inkscape:pagecheckerboard="0"
     showgrid="false"
     showborder="false"
     fit-margin-top="0"
     fit-margin-left="0"
     fit-margin-right="0"
     fit-margin-bottom="0"
     inkscape:zoom="46.222222"
     inkscape:cx="4.6081731"
     inkscape:cy="9.0108173"
     inkscape:window-width="1920"
     inkscape:window-height="1017"
     inkscape:window-x="-8"
     inkscape:window-y="32"
     inkscape:window-maximized="1"
     inkscape:current-layer="svg4" />
  <path
     opacity="0.5"
     d="m 0,4.1467799 v 0.37706 C 1.42097e-4,6.2352399 0.00113678,17.974 0.00113678,17.974 0.102402,17.9842 3.83662,18.0069 5.62485,17.9896 5.81026,17.9878 6.06139,17.892 6.16486,17.7537 6.38054,17.4655 6.18298,17.2454 5.93376,17.0536 4.9069,16.2635 4.97925,14.759 6.06814,14.1122 c 0.81979,-0.4871 1.84295,-0.2781 2.39795,0.49 0.54712,0.7572 0.40336,1.802 -0.33101,2.4033 -0.09096,0.0746 -0.19713,0.1363 -0.27124,0.2245 -0.22449,0.267 -0.0894,0.6627 0.25113,0.7536 0.05607,0.0149 0.11733,0.0153 0.17624,0.0153 1.77649,0.001 3.55299,0.001 5.32949,0.0011 h 0.3768 v -0.3434 c 0,-1.7231 -0.0022,-3.4463 0.0022,-5.1694 7e-4,-0.2736 -0.0236,-0.5263 -0.323,-0.6368 -0.3075,-0.1135 -0.4772,0.079 -0.647,0.2943 -0.6738,0.854 -1.8751,0.9503 -2.6631,0.2211 -0.75483,-0.6984 -0.74616,-1.9091 0.0187,-2.5976901 0.7887,-0.71011 1.9742,-0.61171 2.6364,0.22725 C 13.191,10.2098 13.3593,10.4074 13.6663,10.3026 13.9671,10.2 14.0008,9.9498499 14,9.6732299 c -0.005,-1.73482 -0.0025,-3.46971 -0.0025,-5.2046 v -0.32171 h -0.4008 c -1.7292,0 -3.4583,-0.00253 -5.18738,0.0026 -0.28028,8.4e-4 -0.53056,-0.03369 -0.63197,-0.33367 -0.09679,-0.28633 0.07931,-0.45247 0.28966,-0.61346 0.87386,-0.66889 0.98138,-1.8406 0.24964,-2.63096195 -0.70033,-0.756384 -1.92282,-0.762785 -2.62415,-0.013715 -0.736,0.78627695 -0.63814,1.96403695 0.22805,2.63545695 0.20736,0.16079 0.3956,0.32186 0.30486,0.60918 -0.10063,0.3184 -0.36591,0.34837 -0.65826,0.34738 -1.72911,-0.00577 -3.45828,-0.00288 -5.187389,-0.00295 z"
     fill="#ffffff"
     id="path2" />
</svg>
