<?xml version="1.0" encoding="UTF-8" standalone="no"?>
<svg
   width="12"
   height="18"
   viewBox="0 0 12 18"
   fill="none"
   version="1.1"
   id="svg4"
   sodipodi:docname="rocket.svg"
   inkscape:version="1.1.1 (3bf5ae0d25, 2021-09-20)"
   xmlns:inkscape="http://www.inkscape.org/namespaces/inkscape"
   xmlns:sodipodi="http://sodipodi.sourceforge.net/DTD/sodipodi-0.dtd"
   xmlns="http://www.w3.org/2000/svg"
   xmlns:svg="http://www.w3.org/2000/svg">
  <defs
     id="defs8" />
  <sodipodi:namedview
     id="namedview6"
     pagecolor="#ffffff"
     bordercolor="#666666"
     borderopacity="1.0"
     inkscape:pageshadow="2"
     inkscape:pageopacity="0.0"
     inkscape:pagecheckerboard="0"
     showgrid="false"
     showborder="false"
     fit-margin-top="0"
     fit-margin-left="0"
     fit-margin-right="0"
     fit-margin-bottom="0"
     inkscape:zoom="46.222222"
     inkscape:cx="3.6129808"
     inkscape:cy="9.0108173"
     inkscape:window-width="1920"
     inkscape:window-height="1017"
     inkscape:window-x="-8"
     inkscape:window-y="32"
     inkscape:window-maximized="1"
     inkscape:current-layer="svg4" />
  <path
     opacity="0.5"
     fill-rule="evenodd"
     clip-rule="evenodd"
     d="m 10.3401,8.90373 1.0162,0.93013 C 11.7239,10.1685 12.0002,10.8175 12,11.3112 v 3.6192 c 0,0.4769 -0.2775,0.6903 -0.5643,0.6903 -0.1439,0 -0.2815,-0.0495 -0.4317,-0.1472 L 9.04082,14.1973 C 8.97158,14.1523 8.90518,14.0976 8.84179,14.0369 L 6.63545,17.6156 C 6.48466,17.8602 6.26266,18 6.02629,18 5.79,18 5.568,17.8587 5.41713,17.6141 l -2.20634,-3.581 c -0.0634,0.0607 -0.12995,0.1114 -0.19918,0.1564 L 1.04834,15.4578 C 0.898026,15.5554 0.7485,15.5891 0.604579,15.5891 h -7.9e-4 C 0.317053,15.5891 0,15.4073 0,14.9305 V 11.3113 C 0,10.8175 0.302526,10.1685 0.670105,9.83386 L 1.70668,8.90366 C 1.68087,8.43957 1.67021,8.06254 1.67021,7.85269 1.67021,4.7203 3.17432,1.82226 5.69416,0.100478 5.78874,0.0357291 5.90629,0 6.02558,0 6.14661,0 6.26061,0.034715 6.35684,0.100556 8.87668,1.82234 10.3795,4.72038 10.3795,7.85269 c 0,0.20993 -0.0136,0.58688 -0.0394,1.05104 z M 4.53016,6.54499 c 0,0.81662 0.66995,1.47854 1.49629,1.47854 0.82634,0 1.49629,-0.66192 1.49629,-1.47854 0,-0.81663 -0.66987,-1.47855 -1.49629,-1.47855 -0.82642,0 -1.49629,0.662 -1.49629,1.47855 z"
     fill="#ffffff"
     id="path2" />
</svg>
