<?xml version="1.0" encoding="UTF-8" standalone="no"?>
<svg
   width="18"
   height="18"
   viewBox="0 0 18 18"
   fill="none"
   version="1.1"
   id="svg4"
   sodipodi:docname="sword.svg"
   inkscape:version="1.1.1 (3bf5ae0d25, 2021-09-20)"
   xmlns:inkscape="http://www.inkscape.org/namespaces/inkscape"
   xmlns:sodipodi="http://sodipodi.sourceforge.net/DTD/sodipodi-0.dtd"
   xmlns="http://www.w3.org/2000/svg"
   xmlns:svg="http://www.w3.org/2000/svg">
  <defs
     id="defs8" />
  <sodipodi:namedview
     id="namedview6"
     pagecolor="#ffffff"
     bordercolor="#666666"
     borderopacity="1.0"
     inkscape:pageshadow="2"
     inkscape:pageopacity="0.0"
     inkscape:pagecheckerboard="0"
     showgrid="false"
     showborder="false"
     fit-margin-top="0"
     fit-margin-left="0"
     fit-margin-right="0"
     fit-margin-bottom="0"
     inkscape:zoom="23.111111"
     inkscape:cx="7.0961538"
     inkscape:cy="8.3293269"
     inkscape:window-width="1920"
     inkscape:window-height="1017"
     inkscape:window-x="-8"
     inkscape:window-y="32"
     inkscape:window-maximized="1"
     inkscape:current-layer="svg4" />
  <path
     fill-rule="evenodd"
     clip-rule="evenodd"
     d="M 3.96574,2.89327 C 3.8451,3.11518 3.69276,3.32165 3.50903,3.50536 3.31637,3.69774 3.09803,3.85472 2.86394,3.97857 2.5842,4.12662 2.80533,4.44373 2.80533,4.44373 3.09165,4.8793 3.35272,5.31692 3.56858,5.69816 L 2.11942,7.14598 H 0.712574 c -0.270565,0 -0.489895,0.21949 -0.489895,0.49009 0,0.27047 0.21933,0.48996 0.489895,0.48996 H 2.32201 c 0.13025,0 0.25474,-0.0516 0.34661,-0.14339 L 7.96448,2.69282 C 8.05646,2.60084 8.10807,2.47606 8.10807,2.34619 V 0.729118 c 0,-0.270721 -0.21939,-0.48978 -0.49002,-0.48978 -0.27087,0 -0.49026,0.218996 -0.49026,0.48978 V 2.14307 L 5.6844,3.58443 C 5.29481,3.35452 4.84194,3.07264 4.39323,2.76266 4.39317,2.76278 4.13613,2.57982 3.96574,2.89327 Z M 1.64956,3.29473 C 1.2088,3.29473 0.794574,3.12331 0.482699,2.81196 0.171382,2.50093 0,2.08719 0,1.64734 0,1.20717 0.171444,0.793804 0.482699,0.482832 0.794512,0.171736 1.2088,1.23978e-4 1.64956,0 2.09008,0 2.50437,0.171799 2.81593,0.482832 3.1275,0.793867 3.29913,1.20736 3.29913,1.64734 c 0,0.43991 -0.17169,0.85365 -0.4832,1.16462 C 2.50443,3.12331 2.09008,3.29473 1.64956,3.29473 Z M 6.26287,6.69248 C 6.04565,6.47547 5.69023,6.47547 5.47301,6.69242 L 4.92655,7.23827 c -0.21722,0.21694 -0.21722,0.57201 0,0.78896 L 14.255,17.3448 c 0.2172,0.217 0.6451,0.4172 0.9508,0.445 l 2.2865,0.2079 c 0.3058,0.0278 0.5332,-0.1996 0.5054,-0.5053 L 17.7902,15.2105 C 17.7624,14.9048 17.5619,14.4772 17.3447,14.2601 L 8.01571,4.94145 C 7.79849,4.7245 7.44307,4.7245 7.22585,4.94145 L 6.67864,5.48804 c -0.21722,0.21695 -0.21722,0.57202 0,0.78903 l 7.81056,7.80243 c 0.115,0.1146 0.1151,0.3009 2e-4,0.4156 -0.1147,0.115 -0.3011,0.115 -0.4162,2e-4 z"
     fill="#6f6eff"
     id="path2" />
</svg>
